<svg width="44" height="44" viewBox="0 0 44 44" fill="none" xmlns="http://www.w3.org/2000/svg">
<path d="M13.8726 28.9704C14.3134 29.1079 14.7826 29.1827 15.2699 29.1827C16.895 29.1827 18.3267 28.3525 19.1629 27.0928C19.9999 28.3525 21.4316 29.1827 23.0568 29.1827C24.6827 29.1827 26.1135 28.3525 26.9506 27.0928C27.7876 28.3525 29.2186 29.1827 30.8436 29.1827C31.3308 29.1827 31.8001 29.1079 32.241 28.9704L30.0651 39.3061H27.7293H25.3927H23.0569H20.721H18.3844H16.0486L13.8726 28.9704Z" fill="#F78F4B"/>
<path d="M14.9209 29.9093C15.3618 30.0468 15.831 30.1216 16.3182 30.1216C17.8915 30.1216 19.2817 29.3423 20.1277 28.1496C19.7548 27.849 19.4286 27.4928 19.1628 27.0928C18.3267 28.3525 16.8949 29.1827 15.2698 29.1827C14.7825 29.1827 14.3133 29.1079 13.8725 28.9704L16.0483 39.3061H16.899L14.9209 29.9093Z" fill="#E2773B"/>
<path d="M31.8917 30.1215C31.9277 30.1215 31.9632 30.1202 31.9989 30.1196L32.2407 28.9705C31.7998 29.108 31.3306 29.1827 30.8433 29.1827C29.9004 29.1827 29.0238 28.9018 28.2898 28.4211C29.1468 29.4589 30.4414 30.1215 31.8917 30.1215Z" fill="#E2773B"/>
<path d="M24.105 30.1216C25.6791 30.1216 27.0685 29.3423 27.9152 28.1496C27.5424 27.8491 27.2162 27.4928 26.9504 27.0928C26.1134 28.3525 24.6826 29.1827 23.0566 29.1827C22.1134 29.1827 21.2363 28.9016 20.5019 28.4206C21.359 29.4588 22.6543 30.1216 24.105 30.1216Z" fill="#E2773B"/>
<path d="M12.9332 8.15802C13.7935 8.15802 14.4912 8.85497 14.4912 9.71521C14.4912 10.5754 13.7935 11.2724 12.9332 11.2724C12.0738 11.2724 11.376 10.5754 11.376 9.71521C11.376 8.85506 12.0738 8.15802 12.9332 8.15802Z" fill="#EF3E5C"/>
<path d="M11.8057 10.725C11.8057 9.86474 12.5035 9.16779 13.3629 9.16779C13.8055 9.16779 14.2042 9.35324 14.4879 9.64955C14.4532 8.82008 13.7713 8.15802 12.9332 8.15802C12.0738 8.15802 11.376 8.85497 11.376 9.71521C11.376 10.1329 11.5414 10.5112 11.809 10.7908C11.8081 10.7688 11.8057 10.7472 11.8057 10.725Z" fill="#D63054"/>
<path d="M26.043 12.7179C25.2291 13.4638 24.3371 14.2562 23.4443 15.1663C22.4619 14.1651 21.4797 13.3048 20.6023 12.4936C18.8045 10.8307 17.4501 9.37149 17.4501 7.31844C17.4501 5.63235 18.7925 4.26422 20.4476 4.26422C21.9455 4.26422 22.6948 5.02821 23.4443 6.55532C24.1936 5.02821 24.943 4.26422 26.4418 4.26422C28.0995 4.26422 29.4419 5.63235 29.4419 7.31844C29.4419 9.46344 27.962 10.9596 26.043 12.7179Z" fill="#EF3E5C"/>
<path d="M22.1191 13.2722C20.3213 11.6093 18.9669 10.1501 18.9669 8.09703C18.9669 6.41094 20.3093 5.04282 21.9644 5.04282C22.1482 5.04282 22.3205 5.05467 22.4831 5.07762C21.9642 4.5369 21.3388 4.26422 20.4475 4.26422C18.7924 4.26422 17.45 5.63235 17.45 7.31844C17.45 9.37149 18.8044 10.8307 20.6022 12.4936C21.4797 13.3048 22.4619 14.1651 23.4442 15.1663C23.5617 15.0464 23.6793 14.9288 23.7968 14.8129C23.2149 14.2684 22.6478 13.7611 22.1191 13.2722Z" fill="#D63054"/>
<path d="M20.6022 12.4936C21.4796 13.3048 22.4619 14.1651 23.4442 15.1662C24.3371 14.2562 25.2291 13.4638 26.0429 12.7179C28.4199 13.8394 30.0648 16.2577 30.0648 19.0592C30.0648 19.3488 30.0467 19.6333 30.0132 19.9134C30.2831 19.8653 30.5597 19.8387 30.8433 19.8387C33.424 19.8387 35.5157 21.9304 35.5157 24.5102C35.5157 26.6045 34.139 28.3757 32.2407 28.9704C31.7998 29.1079 31.3306 29.1827 30.8433 29.1827C29.2183 29.1827 27.7874 28.3525 26.9503 27.0927C26.1133 28.3525 24.6824 29.1827 23.0565 29.1827C21.4314 29.1827 19.9997 28.3525 19.1626 27.0927C18.3265 28.3525 16.8947 29.1827 15.2696 29.1827C14.7824 29.1827 14.3131 29.1079 13.8723 28.9704C11.9748 28.3757 10.5972 26.6045 10.5972 24.5102C10.5972 21.9304 12.6889 19.8387 15.2696 19.8387C15.5532 19.8387 15.8299 19.8653 16.0998 19.9134C16.0662 19.6333 16.0481 19.3488 16.0481 19.0592C16.0484 16.0523 17.9424 13.4879 20.6022 12.4936Z" fill="#FFECB2"/>
<path d="M11.3761 25.4847C11.3761 22.9049 13.4678 20.8132 16.0485 20.8132C16.3321 20.8132 16.6088 20.8398 16.8786 20.8879C16.845 20.6078 16.827 20.3233 16.827 20.0337C16.827 17.0268 18.7211 14.4624 21.3808 13.4681C22.2582 14.2793 23.2405 15.1396 24.2228 16.1408C25.1157 15.2307 26.0077 14.4383 26.8215 13.6924C27.6059 14.0624 28.3098 14.5745 28.9019 15.1942C28.1961 14.1291 27.2078 13.2675 26.0428 12.7179C25.2289 13.4639 24.3369 14.2562 23.4441 15.1663C22.4617 14.1651 21.4796 13.3049 20.6021 12.4937C17.9424 13.4879 16.0483 16.0523 16.0483 19.0593C16.0483 19.3489 16.0664 19.6333 16.1 19.9135C15.83 19.8654 15.5534 19.8387 15.2698 19.8387C12.6891 19.8387 10.5974 21.9304 10.5974 24.5103C10.5974 25.838 11.1516 27.0355 12.0404 27.886C11.6191 27.1842 11.3761 26.3631 11.3761 25.4847Z" fill="#E5CF93"/>
<path d="M30.8434 24.5103C31.274 24.5103 31.6221 24.8592 31.6221 25.2897C31.6221 25.7194 31.274 26.0683 30.8434 26.0683C30.4137 26.0683 30.0648 25.7194 30.0648 25.2897C30.0649 24.8592 30.4137 24.5103 30.8434 24.5103Z" fill="#E5CF93"/>
<path d="M24.6139 19.8387C25.0444 19.8387 25.3925 20.1867 25.3925 20.6173C25.3925 21.047 25.0444 21.3959 24.6139 21.3959C24.1842 21.3959 23.8352 21.047 23.8352 20.6173C23.8352 20.1867 24.1842 19.8387 24.6139 19.8387Z" fill="#E5CF93"/>
<path d="M19.1628 17.502C19.5933 17.502 19.9422 17.8509 19.9422 18.2806C19.9422 18.7112 19.5932 19.0592 19.1628 19.0592C18.7331 19.0592 18.3842 18.7112 18.3842 18.2806C18.3843 17.8509 18.7331 17.502 19.1628 17.502Z" fill="#E5CF93"/>
<path d="M18.3843 22.1744C18.8148 22.1744 19.1629 22.5233 19.1629 22.953C19.1629 23.3827 18.8148 23.7317 18.3843 23.7317C17.9546 23.7317 17.6056 23.3827 17.6056 22.953C17.6056 22.5233 17.9546 22.1744 18.3843 22.1744Z" fill="#E5CF93"/>
<path d="M14.4912 23.7316C14.9209 23.7316 15.2699 24.0805 15.2699 24.5102C15.2699 24.9409 14.9209 25.2897 14.4912 25.2897C14.0607 25.2897 13.7126 24.9408 13.7126 24.5102C13.7126 24.0805 14.0607 23.7316 14.4912 23.7316Z" fill="#E5CF93"/>
<path d="M27.7291 39.7358C27.4917 39.7358 27.2994 39.5434 27.2994 39.3061V31.5194C27.2994 31.282 27.4917 31.0897 27.7291 31.0897C27.9665 31.0897 28.1588 31.282 28.1588 31.5194V39.3061C28.1588 39.5434 27.9665 39.7358 27.7291 39.7358Z" fill="#E2773B"/>
<path d="M25.3925 39.7358C25.1551 39.7358 24.9628 39.5435 24.9628 39.3061V34.6338C24.9628 34.3964 25.1551 34.2041 25.3925 34.2041C25.6298 34.2041 25.8221 34.3964 25.8221 34.6338V39.3061C25.8221 39.5435 25.6297 39.7358 25.3925 39.7358Z" fill="#E2773B"/>
<path d="M23.0567 39.7358C22.8193 39.7358 22.627 39.5434 22.627 39.3061V31.5194C22.627 31.282 22.8193 31.0897 23.0567 31.0897C23.294 31.0897 23.4864 31.282 23.4864 31.5194V39.3061C23.4864 39.5434 23.294 39.7358 23.0567 39.7358Z" fill="#E2773B"/>
<path d="M20.7208 39.7358C20.4836 39.7358 20.2911 39.5435 20.2911 39.3061V34.6338C20.2911 34.3964 20.4836 34.2041 20.7208 34.2041C20.9582 34.2041 21.1505 34.3964 21.1505 34.6338V39.3061C21.1505 39.5435 20.9582 39.7358 20.7208 39.7358Z" fill="#E2773B"/>
<path d="M18.3843 39.7358C18.1469 39.7358 17.9546 39.5434 17.9546 39.3061V31.5194C17.9546 31.282 18.1469 31.0897 18.3843 31.0897C18.6216 31.0897 18.814 31.282 18.814 31.5194V39.3061C18.814 39.5434 18.6216 39.7358 18.3843 39.7358Z" fill="#E2773B"/>
<path d="M8.95855 14.899C9.81888 14.899 10.5166 15.5959 10.5166 16.4562C10.5166 17.3164 9.81888 18.0134 8.95855 18.0134C8.09918 18.0134 7.40137 17.3164 7.40137 16.4562C7.40137 15.5959 8.09918 14.899 8.95855 14.899Z" fill="#EF3E5C"/>
<path d="M7.83105 17.4659C7.83105 16.6057 8.52887 15.9088 9.38824 15.9088C9.83091 15.9088 10.2296 16.0942 10.5133 16.3905C10.4786 15.561 9.7967 14.899 8.95855 14.899C8.09918 14.899 7.40137 15.5959 7.40137 16.4562C7.40137 16.8738 7.5668 17.2521 7.83441 17.5318C7.83346 17.5098 7.83105 17.4881 7.83105 17.4659Z" fill="#D63054"/>
<path d="M35.0407 14.0388C35.9009 14.0388 36.5986 14.7357 36.5986 15.5959C36.5986 16.4562 35.9009 17.1531 35.0407 17.1531C34.1813 17.1531 33.4834 16.4562 33.4834 15.5959C33.4834 14.7358 34.1813 14.0388 35.0407 14.0388Z" fill="#EF3E5C"/>
<path d="M33.9131 16.6057C33.9131 15.7455 34.611 15.0485 35.4704 15.0485C35.9129 15.0485 36.3116 15.234 36.5954 15.5303C36.5607 14.7008 35.8787 14.0388 35.0407 14.0388C34.1813 14.0388 33.4834 14.7357 33.4834 15.5959C33.4834 16.0136 33.6489 16.3919 33.9164 16.6715C33.9155 16.6495 33.9131 16.628 33.9131 16.6057Z" fill="#D63054"/>
<path d="M35.5158 39.7358H10.5974C10.36 39.7358 10.1677 39.5435 10.1677 39.3061C10.1677 39.0687 10.36 38.8764 10.5974 38.8764H35.5158C35.7532 38.8764 35.9455 39.0687 35.9455 39.3061C35.9455 39.5435 35.7532 39.7358 35.5158 39.7358Z" fill="#FFECB2"/>
</svg>
